<svg xmlns="http://www.w3.org/2000/svg" width="1500" height="484" viewBox="0 0 1500 484"><svg viewBox="0 0 396 128" data-background-color="#ffffff" height="484" width="1500" xmlns="http://www.w3.org/2000/svg" xmlns:xlink="http://www.w3.org/1999/xlink" transform="translate(-.91 -1.503)"><svg viewBox="0 0 395.52 127.205" height="127.205" width="395.52" transform="translate(.24 .397)"><svg viewBox="0 0 680.37 218.817" height="127.205" width="395.52"><svg viewBox="0 0 395.52 139.857" height="139.857" width="395.52" transform="translate(284.85 39.48)"><svg viewBox="0 0 395.52 139.857" height="139.857" width="395.52"><svg viewBox="0 0 395.52 139.857" height="139.857" width="395.52"><svg width="395.52" viewBox="3.98 -38.57 126.07 44.58" height="139.857" data-palette-color="#001f3f"><path d="M29.22-4.49V0H3.98v-35.16h25.24v4.5H13.67v10.86h12.01v4.47H13.67v10.84h15.55Zm32.84-34.08V0h-3.18l-3.66-6.13q-.53 1.54-1.47 2.79-.94 1.24-2.18 2.13-1.23.89-2.71 1.38-1.47.49-3.11.49-3.22 0-5.76-1.15-2.54-1.15-4.3-3.14-1.76-1.99-2.68-4.67-.93-2.69-.93-5.76 0-3.08.93-5.76.92-2.69 2.68-4.67 1.76-1.97 4.3-3.12 2.54-1.15 5.76-1.15 2.47 0 4.53.95t3.53 2.98v-13.74h8.25Zm-8.3 24.51q0-.98-.15-2.15t-.46-2.37q-.32-1.2-.83-2.32-.52-1.12-1.26-2-.75-.88-1.73-1.4-.99-.53-2.26-.53-1.39 0-2.42.5-1.02.5-1.76 1.34-.73.85-1.21 1.95-.47 1.09-.74 2.29t-.38 2.4q-.11 1.21-.11 2.29 0 1.07.11 2.28.11 1.21.38 2.4.27 1.2.74 2.31.48 1.11 1.21 1.96.74.84 1.76 1.34 1.03.5 2.42.5t2.44-.49q1.05-.49 1.79-1.33.75-.84 1.22-1.93.48-1.09.75-2.29.27-1.21.38-2.43.11-1.22.11-2.32Zm21.97.68q1.51.34 3.02.54 1.52.19 3.06.19 1.61 0 2.99-.3 1.38-.31 2.39-1.03 1.01-.72 1.6-1.91.58-1.2.58-2.98 0-1.44-.39-2.64-.39-1.2-1.16-2.05-.76-.85-1.89-1.33-1.12-.48-2.61-.48-1.39 0-2.5.52-1.11.51-1.96 1.38-.84.86-1.44 2.01-.59 1.15-.98 2.39-.4 1.25-.57 2.52-.17 1.27-.17 2.39v.39q0 .2.03.39Zm20.33-5.57q0 1.74-.56 3.09-.56 1.36-1.52 2.38-.97 1.03-2.24 1.74-1.27.7-2.71 1.16-1.44.45-2.96.64-1.53.2-2.97.2-1.83 0-3.61-.26-1.79-.25-3.52-.82.27 1.62.86 3.07.58 1.45 1.56 2.54.98 1.08 2.4 1.72 1.43.63 3.38.63 1.3 0 2.47-.39 1.17-.39 2.15-1.1.98-.7 1.72-1.68t1.21-2.17l3.56 1.32q-.8 1.92-2.21 3.33-1.4 1.4-3.17 2.32-1.77.91-3.76 1.35-1.99.44-3.94.44-3.23 0-5.96-1.08-2.73-1.09-4.71-3.04-1.98-1.96-3.1-4.67-1.13-2.71-1.13-5.93 0-3.22 1.13-5.93 1.12-2.71 3.1-4.67 1.98-1.95 4.71-3.04 2.73-1.08 5.96-1.08 1.56 0 3.2.22 1.63.22 3.17.69 1.54.48 2.9 1.24 1.37.75 2.38 1.86 1.02 1.12 1.62 2.58.59 1.46.59 3.34Zm33.99 2.79q0 2.85-.7 5.95-.7 3.11-1.94 6.08-1.25 2.98-2.98 5.61-1.73 2.62-3.81 4.53l-3.1-1.69q.66-1.22 1.25-2.73.58-1.52 1.06-3.21.48-1.7.85-3.51.38-1.8.64-3.57.25-1.77.39-3.45.13-1.67.13-3.11 0-.95-.07-2.04-.07-1.08-.31-2.17-.23-1.09-.62-2.09-.39-1-1.04-1.76-.64-.75-1.56-1.22-.91-.46-2.16-.46-1.22 0-2.17.55t-1.69 1.44q-.73.89-1.25 2.04-.53 1.15-.86 2.35-.33 1.21-.47 2.38-.15 1.18-.15 2.1V0h-8.28v-28.2h3.18l3.78 6.57q.68-1.64 1.71-2.98 1.03-1.34 2.32-2.29 1.29-.96 2.87-1.47 1.57-.51 3.4-.51 2.93 0 5.11.95 2.17.95 3.61 2.65t2.15 4.03q.71 2.33.71 5.09Z" fill="#001f3f" class="wordmark-text-0" data-fill-palette-color="primary"/></svg></svg></svg></svg><svg viewBox="0 0 218.817 218.817" height="218.817" width="218.817"><svg/><svg viewBox="0 0 218.817 218.817" height="218.817" width="218.817"><path d="M0 109.408C0 48.983 48.984 0 109.408 0c60.425 0 109.408 48.984 109.409 109.408 0 60.425-48.984 109.408-109.409 109.409C48.983 218.817 0 169.833 0 109.408zm109.408 96.796c53.459 0 96.796-43.337 96.796-96.796s-43.337-96.796-96.796-96.796-96.796 43.337-96.796 96.796 43.337 96.796 96.796 96.796z" data-fill-palette-color="accent" fill="#001f3f" stroke="transparent"/><svg viewBox="0 0 111 96.729" height="96.729" width="111" transform="translate(53.908 61.044)"><svg xmlns="http://www.w3.org/2000/svg" xmlns:xlink="http://www.w3.org/1999/xlink" viewBox="1.908 7.224 96.158 83.795" xml:space="preserve" height="96.729" width="111" class="icon-dxe-0" data-fill-palette-color="accent"><path d="M34.046 63.234c-8.987.182-15.297.765-19.686 1.427C8.039 75.008 4.036 84.183 1.908 89.665a15.8 15.8 0 0 0 6.406 1.354c6.652 0 12.199-4.696 13.529-9.949 1.332 5.253 6.88 9.223 13.53 9.223 6.675 0 12.243-3.926 13.545-9.207 1.308 5.281 6.873 9.35 13.548 9.35 6.638 0 12.182-3.742 13.522-8.98 1.339 5.238 6.884 9.557 13.521 9.557 3.235 0 6.204-.986 8.557-2.518-10.148-15.757-11.971-36.391-11.294-52.929-2.226.019-5.389.289-9.847 1.104 4.598-2.576 7.821-3.641 9.993-4.025.874-14.651 3.543-25.421 3.543-25.421-37.145 7.819-60.687 33.241-74.411 54.728 4.318-.004 10.138.326 17.996 1.282" fill="#001f3f" data-fill-palette-color="accent"/></svg></svg></svg></svg></svg></svg></svg></svg>
